0
SECTION
2
HEADER
9
$INSUNITS
70
4
9
$ACADVER
1
AC1014
9
$HANDSEED
5
FFFF
0
ENDSEC
0
SECTION
2
TABLES
0
TABLE
2
VPORT
5
8
100
AcDbSymbolTable
0
ENDTAB
0
TABLE
2
LTYPE
5
5
100
AcDbSymbolTable
0
LTYPE
5
14
100
AcDbSymbolTableRecord
100
AcDbLinetypeTableRecord
2
BYBLOCK
70
0
0
LTYPE
5
15
100
AcDbSymbolTableRecord
100
AcDbLinetypeTableRecord
2
BYLAYER
70
0
0
LTYPE
5
16
100
AcDbSymbolTableRecord
100
AcDbLinetypeTableRecord
2
DASHED
70
0
3
Dashed __ __ __ __ __ __ __ __ __ __ __ __ __ _
72
65
73
2
40
0.75
49
0.5
74
0
49
-0.25
74
0
0
ENDTAB
0
TABLE
2
LAYER
5
2
100
AcDbSymbolTable
70
2
0
LAYER
5
50
100
AcDbSymbolTableRecord
100
AcDbLayerTableRecord
2
0
70
0
62
7
6
CONTINUOUS
0
ENDTAB
0
TABLE
2
STYLE
5
3
100
AcDbSymbolTable
70
1
0
STYLE
5
11
100
AcDbSymbolTableRecord
100
AcDbTextStyleTableRecord
2
STANDARD
70
0
0
ENDTAB
0
TABLE
2
VIEW
5
6
100
AcDbSymbolTable
70
0
0
ENDTAB
0
TABLE
2
UCS
5
7
100
AcDbSymbolTable
70
0
0
ENDTAB
0
TABLE
2
APPID
5
9
100
AcDbSymbolTable
70
2
0
APPID
5
12
100
AcDbSymbolTableRecord
100
AcDbRegAppTableRecord
2
ACAD
70
0
0
ENDTAB
0
TABLE
2
DIMSTYLE
5
A
100
AcDbSymbolTable
70
1
0
ENDTAB
0
TABLE
2
BLOCK_RECORD
5
1
100
AcDbSymbolTable
70
1
0
BLOCK_RECORD
5
1F
100
AcDbSymbolTableRecord
100
AcDbBlockTableRecord
2
*MODEL_SPACE
0
BLOCK_RECORD
5
1B
100
AcDbSymbolTableRecord
100
AcDbBlockTableRecord
2
*PAPER_SPACE
0
ENDTAB
0
ENDSEC
0
SECTION
2
BLOCKS
0
BLOCK
5
20
100
AcDbEntity
100
AcDbBlockBegin
2
*MODEL_SPACE
0
ENDBLK
5
21
100
AcDbEntity
100
AcDbBlockEnd
0
BLOCK
5
1C
100
AcDbEntity
100
AcDbBlockBegin
2
*PAPER_SPACE
0
ENDBLK
5
1D
100
AcDbEntity
100
AcDbBlockEnd
0
ENDSEC
0
SECTION
2
ENTITIES
0
POINT
5
100
100
AcDbEntity
8
0
100
AcDbPoint
10
-3.1587635732883484e-13
20
-22.999999999984215
30
0
0
LINE
5
101
100
AcDbEntity
8
0
100
AcDbLine
10
-23.625000000000334
20
-19.374999999984567
30
0
11
-23.625000000000526
21
-11.874999999984565
31
0
0
LINE
5
102
100
AcDbEntity
8
0
100
AcDbLine
10
-23.625000000000526
20
-11.874999999984565
30
0
11
-16.375000000000448
21
-11.874999999984791
31
0
0
LINE
5
103
100
AcDbEntity
8
0
100
AcDbLine
10
-16.375000000000448
20
-11.874999999984791
30
0
11
-16.375000000000405
21
-19.374999999984897
31
0
0
LINE
5
104
100
AcDbEntity
8
0
100
AcDbLine
10
-16.375000000000405
20
-19.374999999984897
30
0
11
-8.8750000000004086
21
-19.374999999983736
31
0
0
LINE
5
105
100
AcDbEntity
8
0
100
AcDbLine
10
-8.8750000000004086
20
-19.374999999983736
30
0
11
-8.8750000000003944
21
-26.624999999983704
31
0
0
LINE
5
106
100
AcDbEntity
8
0
100
AcDbLine
10
-8.8750000000003944
20
-26.624999999983704
30
0
11
-16.375000000000362
21
-26.624999999983928
31
0
0
LINE
5
107
100
AcDbEntity
8
0
100
AcDbLine
10
-23.625000000000334
20
-19.374999999984567
30
0
11
-16.375000000000362
21
-26.624999999983928
31
0
6
DASHED
0
LINE
5
108
100
AcDbEntity
8
0
100
AcDbLine
10
-23.625000000000227
20
-19.374999999984468
30
0
11
-31.125000000000224
21
-19.374999999984887
31
0
0
LINE
5
109
100
AcDbEntity
8
0
100
AcDbLine
10
-31.125000000000224
20
-19.374999999984887
30
0
11
-31.124999999999332
21
-26.624999999984887
31
0
0
LINE
5
110
100
AcDbEntity
8
0
100
AcDbLine
10
-31.124999999999332
20
-26.624999999984887
30
0
11
-23.624999999999222
21
-26.624999999984308
31
0
0
LINE
5
111
100
AcDbEntity
8
0
100
AcDbLine
10
-23.624999999999222
20
-26.624999999984308
30
0
11
-23.624999999999787
21
-34.124999999984468
31
0
0
LINE
5
112
100
AcDbEntity
8
0
100
AcDbLine
10
-23.624999999999787
20
-34.124999999984468
30
0
11
-16.374999999999989
21
-34.124999999983913
31
0
0
LINE
5
113
100
AcDbEntity
8
0
100
AcDbLine
10
-16.374999999999989
20
-34.124999999983913
30
0
11
-16.375000000000352
21
-26.62499999998392
31
0
0
LINE
5
114
100
AcDbEntity
8
0
100
AcDbLine
10
-3.1587635732883484e-13
20
-22.999999999984215
30
0
11
-20.000000000000352
21
-22.999999999984251
31
0
6
DASHED
0
LINE
5
115
100
AcDbEntity
8
0
100
AcDbLine
10
-20.000000000000352
20
-22.999999999984251
30
0
11
-40.300000000306682
21
-22.999999999984247
31
0
6
DASHED
0
CIRCLE
5
116
100
AcDbEntity
8
0
100
AcDbCircle
10
-3.1481761642027095e-13
20
-19.499999999984215
30
0
40
0.87500000000000011
210
0
220
0
230
1
0
CIRCLE
5
117
100
AcDbEntity
8
0
100
AcDbCircle
10
-3.1587635732883484e-13
20
-22.999999999984215
30
0
40
0.87500000000000011
210
0
220
0
230
1
0
CIRCLE
5
118
100
AcDbEntity
8
0
100
AcDbCircle
10
-3.1509517217642724e-13
20
-26.499999999984212
30
0
40
0.87500000000000011
210
0
220
0
230
1
0
LINE
5
119
100
AcDbEntity
8
0
100
AcDbLine
10
-3.1481761642027095e-13
20
-19.499999999984215
30
0
11
-3.1587635732883484e-13
21
-22.999999999984215
31
0
6
DASHED
0
LINE
5
120
100
AcDbEntity
8
0
100
AcDbLine
10
-3.1587635732883484e-13
20
-22.999999999984215
30
0
11
-3.1509517217642724e-13
21
-26.499999999984212
31
0
6
DASHED
0
LWPOLYLINE
5
121
100
AcDbEntity
8
0
100
AcDbPolyline
90
4
70
1
43
0.0
10
2.4999999999996416
20
-16.749999999984219
10
-2.5000000000003473
20
-16.749999999984219
10
-2.5000000000003562
20
-29.249999999984219
10
2.499999999999643
20
-29.249999999984219
0
LINE
5
122
100
AcDbEntity
8
0
100
AcDbLine
10
2.4999999999996416
20
-16.749999999984219
30
0
11
-2.5000000000003562
21
-29.249999999984219
31
0
6
DASHED
0
LINE
5
123
100
AcDbEntity
8
0
100
AcDbLine
10
-2.5000000000003473
20
-16.749999999984219
30
0
11
2.499999999999643
21
-29.249999999984219
31
0
6
DASHED
0
LINE
5
124
100
AcDbEntity
8
0
100
AcDbLine
10
-3.1587635732883484e-13
20
-22.999999999984215
30
0
11
0
21
-52.999999999984212
31
0
6
DASHED
0
LINE
5
125
100
AcDbEntity
8
0
100
AcDbLine
10
-3.1587635732883484e-13
20
-22.999999999984215
30
0
11
-2.0443701721230341e-13
21
4.9999999999842082
31
0
6
DASHED
0
LWPOLYLINE
5
126
100
AcDbEntity
8
0
100
AcDbPolyline
90
4
70
1
43
0.0
10
-7.8249999996932518
20
-6.4700000000252089
10
-2.5749999996932478
20
-6.4700000000252089
42
0.99999999999999989
10
-2.5749999996932478
20
-3.220000000025212
10
-7.8249999996932518
20
-3.220000000025212
42
0.99999999999999989
0
LINE
5
127
100
AcDbEntity
8
0
100
AcDbLine
10
-9.4499999996932509
20
-4.8450000000252142
30
0
11
-0.94999999969324933
21
-4.8450000000252214
31
0
6
DASHED
0
LINE
5
128
100
AcDbEntity
8
0
100
AcDbLine
10
-0.94999999969324933
20
-4.8450000000252214
30
0
11
1.0500000003067509
21
-4.8450000000252054
31
0
6
DASHED
0
LWPOLYLINE
5
129
100
AcDbEntity
8
0
100
AcDbPolyline
90
4
70
1
43
0.0
10
2.6750000003067615
20
-6.4700000000252036
10
7.9250000003067385
20
-6.4700000000252036
42
0.99999999999999989
10
7.9250000003067385
20
-3.2200000000251814
10
2.6750000003067615
20
-3.2200000000251814
42
0.99999999999999989
0
LINE
5
130
100
AcDbEntity
8
0
100
AcDbLine
10
1.0500000003067509
20
-4.8450000000252054
30
0
11
9.5500000003067491
21
-4.8450000000252205
31
0
6
DASHED
0
LWPOLYLINE
5
131
100
AcDbEntity
8
0
100
AcDbPolyline
90
4
70
1
43
0.0
10
13.175000000306715
20
-6.4700000000251645
10
18.425000000306802
20
-6.4700000000251645
42
0.99999999999999989
10
18.425000000306802
20
-3.2200000000252493
10
13.175000000306715
20
-3.2200000000252493
42
0.99999999999999989
0
LINE
5
132
100
AcDbEntity
8
0
100
AcDbLine
10
11.55000000030676
20
-4.8450000000252054
30
0
11
20.05000000030676
21
-4.8450000000251938
31
0
6
DASHED
0
LINE
5
133
100
AcDbEntity
8
0
100
AcDbLine
10
9.5500000003067491
20
-4.8450000000252205
30
0
11
11.55000000030676
21
-4.8450000000252054
31
0
6
DASHED
0
LWPOLYLINE
5
134
100
AcDbEntity
8
0
100
AcDbPolyline
90
4
70
1
43
0.0
10
23.675000000306738
20
-6.4700000000251539
10
28.925000000306778
20
-6.4700000000251601
42
0.99999999999999989
10
28.925000000306788
20
-3.2200000000252054
10
23.675000000306746
20
-3.220000000025196
42
0.99999999999999989
0
LINE
5
135
100
AcDbEntity
8
0
100
AcDbLine
10
22.050000000306763
20
-4.8450000000251947
30
0
11
30.55000000030676
21
-4.845000000025145
31
0
6
DASHED
0
LINE
5
136
100
AcDbEntity
8
0
100
AcDbLine
10
22.050000000306763
20
-4.8450000000251947
30
0
11
20.05000000030676
21
-4.8450000000251938
31
0
6
DASHED
0
LINE
5
137
100
AcDbEntity
8
0
100
AcDbLine
10
30.55000000030676
20
-4.845000000025145
30
0
11
40.30000000030676
21
-4.8450000000250562
31
0
6
DASHED
0
LINE
5
138
100
AcDbEntity
8
0
100
AcDbLine
10
40.30000000030676
20
-4.8450000000250562
30
0
11
40.300000000306682
21
6.1549999999749447
31
0
6
DASHED
0
LWPOLYLINE
5
139
100
AcDbEntity
8
0
100
AcDbPolyline
90
4
70
1
43
0.0
10
-7.4999999999999778
20
-47.999999999984233
10
7.5000000000000311
20
-47.999999999984226
42
0.99999999999999989
10
7.500000000000016
20
-41.999999999984183
10
-7.499999999999984
20
-41.999999999984219
42
0.99999999999999989
0
LINE
5
140
100
AcDbEntity
8
0
100
AcDbLine
10
-10.499999999999998
20
-44.999999999984219
30
0
11
10.500000000000025
21
-44.999999999984219
31
0
6
DASHED
0
LINE
5
141
100
AcDbEntity
8
0
100
AcDbLine
10
1.366962099069724e-14
20
-44.999999999984219
30
0
11
0
21
-52.999999999984212
31
0
0
CIRCLE
5
142
100
AcDbEntity
8
0
100
AcDbCircle
10
13.249999999999684
20
-25.128266824917155
30
0
40
4.125
210
0
220
0
230
1
0
CIRCLE
5
143
100
AcDbEntity
8
0
100
AcDbCircle
10
26.749999999999691
20
-20.871733175050903
30
0
40
4.125
210
0
220
0
230
1
0
LINE
5
144
100
AcDbEntity
8
0
100
AcDbLine
10
26.749999999999691
20
-20.871733175050899
30
0
11
26.749999999999691
21
-25.128266824917155
31
0
6
DASHED
0
LINE
5
145
100
AcDbEntity
8
0
100
AcDbLine
10
26.749999999999691
20
-25.128266824917155
30
0
11
13.249999999999684
21
-25.128266824917155
31
0
6
DASHED
0
LINE
5
146
100
AcDbEntity
8
0
100
AcDbLine
10
13.249999999999684
20
-25.128266824917155
30
0
11
26.749999999999691
21
-20.871733175050899
31
0
6
DASHED
0
LINE
5
147
100
AcDbEntity
8
0
100
AcDbLine
10
19.999999999999687
20
-22.99999999998402
30
0
11
-3.1141755840735641e-13
21
-22.999999999984215
31
0
6
DASHED
0
LINE
5
148
100
AcDbEntity
8
0
100
AcDbLine
10
19.999999999999687
20
-22.99999999998402
30
0
11
40.300000000306682
21
-22.9999999999838
31
0
6
DASHED
0
LWPOLYLINE
5
149
100
AcDbEntity
8
0
100
AcDbPolyline
90
4
70
1
43
0.0
10
40.300000000306682
20
-52.999999999984212
10
40.300000000306682
20
52.999999999984212
10
-40.300000000306682
20
52.999999999984212
10
-40.300000000306682
20
-52.999999999984212
0
LINE
5
150
100
AcDbEntity
8
0
100
AcDbLine
10
24.480000000000153
20
6.1549999999749438
30
0
11
40.300000000306682
21
6.1549999999749447
31
0
0
LINE
5
151
100
AcDbEntity
8
0
100
AcDbLine
10
-2.0443701721230341e-13
20
4.9999999999842082
30
0
11
0
21
52.999999999984212
31
0
6
DASHED
0
LWPOLYLINE
5
152
100
AcDbEntity
8
0
100
AcDbPolyline
90
4
70
1
43
0.0
10
-26.525955351399855
20
4.1090446485756384
10
-26.525955351399858
20
44.920955351374246
10
26.52595535139907
20
44.920955351374246
10
26.525955351399851
20
4.1090446485756438
0
LINE
5
153
100
AcDbEntity
8
0
100
AcDbLine
10
-40.300000000306682
20
0
30
0
11
40.300000000306682
21
0
31
0
6
DASHED
0
ENDSEC
0
SECTION
2
OBJECTS
0
DICTIONARY
5
C
100
AcDbDictionary
3
ACAD_GROUP
350
D
3
ACAD_MLINESTYLE
350
17
0
DICTIONARY
5
D
100
AcDbDictionary
0
DICTIONARY
5
1A
330
C
100
AcDbDictionary
0
DICTIONARY
5
17
100
AcDbDictionary
0
ENDSEC
0
EOF
